<?xml version="1.0" encoding="UTF-8" standalone="no"?>
<!-- Generator: Adobe Illustrator 24.1.0, SVG Export Plug-In . SVG Version: 6.00 Build 0)  -->

<svg
   version="1.1"
   id="Layer_1"
   x="0px"
   y="0px"
   viewBox="0 0 512 512"
   style="enable-background:new 0 0 512 512;"
   xml:space="preserve"
   sodipodi:docname="app-icon.svg"
   inkscape:version="1.2 (dc2aeda, 2022-05-15)"
   xmlns:inkscape="http://www.inkscape.org/namespaces/inkscape"
   xmlns:sodipodi="http://sodipodi.sourceforge.net/DTD/sodipodi-0.dtd"
   xmlns="http://www.w3.org/2000/svg"
   xmlns:svg="http://www.w3.org/2000/svg"><defs
   id="defs1309" /><sodipodi:namedview
   id="namedview1307"
   pagecolor="#ffffff"
   bordercolor="#000000"
   borderopacity="0.25"
   inkscape:showpageshadow="2"
   inkscape:pageopacity="0.0"
   inkscape:pagecheckerboard="0"
   inkscape:deskcolor="#d1d1d1"
   showgrid="false"
   inkscape:zoom="0.41166595"
   inkscape:cx="411.74161"
   inkscape:cy="200.40521"
   inkscape:window-width="1513"
   inkscape:window-height="913"
   inkscape:window-x="0"
   inkscape:window-y="25"
   inkscape:window-maximized="0"
   inkscape:current-layer="g1304" />
<style
   type="text/css"
   id="style1280">
	.st0{fill:#FFFFFF;}
</style>
<g
   id="g1304">
	<rect
   style="enable-background:new 0 0 512 512;fill:#d4401f;stroke-width:0.32"
   id="rect1363"
   width="512"
   height="512"
   x="0"
   y="6.0659579e-07" />
	
	<g
   id="g1378"
   transform="matrix(0.82724311,0,0,0.82724311,44.208487,44.294866)"><g
     id="g1290">
		<path
   class="st0"
   d="m 335,75.3 c 45.6,19.9 82.1,56.5 102.1,102.1 h 24.4 C 439.1,119.4 393,73.3 335,50.9 Z"
   id="path1282" />
		<path
   class="st0"
   d="M 74.8,177.4 C 94.7,131.8 131.3,95.3 176.9,75.3 V 50.9 C 118.9,73.2 72.8,119.4 50.4,177.4 Z"
   id="path1284" />
		<path
   class="st0"
   d="m 437,335.5 c -19.9,45.5 -56.5,82.1 -102,102 v 24.4 C 393,439.6 439.1,393.4 461.5,335.4 H 437 Z"
   id="path1286" />
		<path
   class="st0"
   d="M 176.9,437.5 C 131.3,417.6 94.7,381 74.8,335.5 H 50.4 c 22.3,58 68.5,104.1 126.5,126.5 z"
   id="path1288" />
	</g><path
     class="st0"
     d="m 263.2,395.2 h -17.4 c -14.1,0 -25.6,-11.5 -25.6,-25.6 v -5.9 c -6,-1.9 -11.8,-4.3 -17.4,-7.2 l -4.2,4.2 c -10.1,10.1 -26.3,9.8 -36.1,0 l -12.3,-12.3 c -9.8,-9.8 -10.1,-26 0,-36.1 l 4.2,-4.2 c -2.9,-5.6 -5.3,-11.4 -7.2,-17.4 h -5.9 c -14.1,0 -25.6,-11.5 -25.6,-25.6 v -17.4 c 0,-14.1 11.5,-25.6 25.6,-25.6 h 5.9 c 1.9,-6 4.3,-11.8 7.2,-17.4 l -4.2,-4.2 c -10.1,-10.1 -9.8,-26.3 0,-36.1 l 12.3,-12.3 c 9.8,-9.9 26,-10.1 36.1,0 l 4.2,4.2 c 5.6,-2.9 11.4,-5.3 17.4,-7.2 v -5.9 c 0,-14.1 11.5,-25.6 25.6,-25.6 h 17.4 c 14.1,0 25.6,11.5 25.6,25.6 v 5.9 c 6,1.9 11.8,4.3 17.4,7.2 l 4.2,-4.2 c 10.1,-10.1 26.3,-9.8 36.1,0 l 12.3,12.3 c 9.8,9.8 10.1,26 0,36.1 l -4.2,4.2 c 2.9,5.6 5.3,11.4 7.2,17.4 h 5.9 c 14.1,0 25.6,11.5 25.6,25.6 v 17.4 c 0,14.1 -11.5,25.6 -25.6,25.6 h -5.9 c -1.9,6 -4.3,11.8 -7.2,17.4 l 4.2,4.2 c 10.1,10.1 9.8,26.3 0,36.1 l -12.3,12.3 c -9.8,9.9 -26,10.1 -36.1,0 l -4.2,-4.2 c -5.6,2.9 -11.4,5.3 -17.4,7.2 v 5.9 c 0,14.2 -11.5,25.6 -25.6,25.6 z m -57.7,-55.7 c 7.8,4.6 16.1,8.1 24.9,10.3 3.6,0.9 6.1,4.2 6.1,7.9 v 12 c 0,5.1 4.2,9.3 9.3,9.3 h 17.4 c 5.1,0 9.3,-4.2 9.3,-9.3 v -12 c 0,-3.7 2.5,-6.9 6.1,-7.9 8.7,-2.3 17.1,-5.7 24.9,-10.3 3.2,-1.9 7.3,-1.4 9.9,1.2 l 8.5,8.5 c 3.7,3.7 9.6,3.6 13.1,0 l 12.3,-12.3 c 3.6,-3.6 3.7,-9.5 0,-13.1 l -8.5,-8.5 c -2.6,-2.6 -3.1,-6.7 -1.2,-9.9 4.6,-7.8 8.1,-16.1 10.3,-24.9 0.9,-3.6 4.2,-6.1 7.9,-6.1 h 12 c 5.1,0 9.3,-4.2 9.3,-9.3 v -17.4 c 0,-5.1 -4.2,-9.3 -9.3,-9.3 h -12 c -3.7,0 -6.9,-2.5 -7.9,-6.1 -2.3,-8.7 -5.7,-17.1 -10.3,-24.9 -1.9,-3.2 -1.4,-7.3 1.2,-9.9 l 8.5,-8.5 c 3.7,-3.7 3.6,-9.6 0,-13.1 L 335,163.6 c -3.6,-3.6 -9.5,-3.7 -13.1,0 l -8.5,8.5 c -2.6,2.6 -6.7,3.1 -9.9,1.2 -7.8,-4.6 -16.1,-8.1 -24.9,-10.3 -3.6,-0.9 -6.1,-4.2 -6.1,-7.9 v -12 c 0,-5.1 -4.2,-9.3 -9.3,-9.3 h -17.4 c -5.1,0 -9.3,4.2 -9.3,9.3 v 12 c 0,3.7 -2.5,6.9 -6.1,7.9 -8.7,2.3 -17.1,5.7 -24.9,10.3 -3.2,1.9 -7.3,1.4 -9.9,-1.2 l -8.5,-8.5 c -3.7,-3.7 -9.6,-3.6 -13.1,0 l -12.3,12.3 c -3.6,3.6 -3.7,9.5 0,13.1 l 8.5,8.5 c 2.6,2.6 3.1,6.7 1.2,9.9 -4.6,7.8 -8.1,16.1 -10.3,24.9 -0.9,3.6 -4.2,6.1 -7.9,6.1 h -12 c -5.1,0 -9.3,4.2 -9.3,9.3 v 17.4 c 0,5.1 4.2,9.3 9.3,9.3 h 12 c 3.7,0 6.9,2.5 7.9,6.1 2.3,8.7 5.7,17.1 10.3,24.9 1.9,3.2 1.4,7.3 -1.2,9.9 l -8.5,8.5 c -3.7,3.7 -3.6,9.6 0,13.1 l 12.3,12.3 c 3.6,3.6 9.5,3.7 13.1,0 l 8.5,-8.5 c 2,-1.9 6,-3.5 9.9,-1.2 z"
     id="path1292" /><g
     id="g1302">
		<circle
   class="st0"
   cx="255.89999"
   cy="47.5"
   r="45.200001"
   id="circle1294" />
		<circle
   class="st0"
   cx="464.79999"
   cy="256.39999"
   r="45.200001"
   id="circle1296" />
		<circle
   class="st0"
   cx="255.89999"
   cy="465.29999"
   r="45.200001"
   id="circle1298" />
		<circle
   class="st0"
   cx="47"
   cy="256.39999"
   r="45.200001"
   id="circle1300" />
	</g></g>
</g>
</svg>
